<?xml version="1.0" encoding="UTF-8"?>
<svg xmlns="http://www.w3.org/2000/svg" xmlns:xlink="http://www.w3.org/1999/xlink" width="32pt" height="32pt" viewBox="0 0 32 32" version="1.1">
<g id="surface1">
<path style=" stroke:none;fill-rule:nonzero;fill:rgb(0%,0%,0%);fill-opacity:1;" d="M 16 20.285156 C 11.355469 20.285156 7.429688 22.378906 7.429688 24.855469 C 7.429688 27.335938 11.355469 29.429688 16 29.429688 C 20.644531 29.429688 24.570312 27.335938 24.570312 24.855469 C 24.570312 22.378906 20.644531 20.285156 16 20.285156 Z M 15.382812 27.367188 C 15.304688 27.554688 15.128906 27.6875 14.925781 27.710938 C 14.722656 27.734375 14.523438 27.648438 14.398438 27.484375 L 12.859375 25.429688 L 12.570312 25.429688 L 12.570312 27.144531 C 12.570312 27.457031 12.316406 27.714844 12 27.714844 C 11.683594 27.714844 11.429688 27.457031 11.429688 27.144531 L 11.429688 22.570312 C 11.429688 22.417969 11.488281 22.273438 11.597656 22.167969 C 11.703125 22.058594 11.847656 22 12 22 L 13.714844 22 C 14.5625 21.996094 15.28125 22.617188 15.410156 23.453125 C 15.535156 24.289062 15.03125 25.09375 14.222656 25.34375 L 15.3125 26.800781 C 15.4375 26.964844 15.464844 27.179688 15.382812 27.367188 Z M 20.570312 26 C 20.570312 26.945312 19.804688 27.714844 18.855469 27.714844 L 18.285156 27.714844 C 17.339844 27.714844 16.574219 26.945312 16.570312 26 L 16.570312 22.570312 C 16.570312 22.257812 16.828125 22 17.144531 22 C 17.457031 22 17.714844 22.253906 17.714844 22.570312 L 17.714844 26 C 17.714844 26.316406 17.96875 26.570312 18.285156 26.570312 L 18.855469 26.570312 C 19.171875 26.570312 19.429688 26.316406 19.429688 26 L 19.429688 22.570312 C 19.429688 22.257812 19.683594 22 20 22 C 20.316406 22 20.570312 22.253906 20.570312 22.570312 Z M 20.570312 26 "/>
<path style=" stroke:none;fill-rule:nonzero;fill:rgb(0%,0%,0%);fill-opacity:1;" d="M 13.714844 23.144531 L 12.570312 23.144531 L 12.570312 24.285156 L 13.714844 24.285156 C 14.03125 24.285156 14.285156 24.03125 14.285156 23.714844 C 14.285156 23.398438 14.03125 23.144531 13.714844 23.144531 Z M 13.714844 23.144531 "/>
<path style=" stroke:none;fill-rule:nonzero;fill:rgb(0%,0%,0%);fill-opacity:1;" d="M 0 23.714844 C 0 24.03125 0.257812 24.285156 0.570312 24.285156 L 6.332031 24.285156 C 6.804688 21.359375 10.882812 19.144531 16 19.144531 C 21.117188 19.144531 25.195312 21.359375 25.667969 24.285156 L 31.429688 24.285156 C 31.742188 24.285156 32 24.03125 32 23.714844 L 32 18 L 0 18 Z M 0 23.714844 "/>
<path style=" stroke:none;fill-rule:nonzero;fill:rgb(0%,0%,0%);fill-opacity:1;" d="M 31.429688 2.570312 L 0.570312 2.570312 C 0.257812 2.570312 0 2.828125 0 3.144531 L 0 8.855469 L 32 8.855469 L 32 3.144531 C 32 2.828125 31.742188 2.570312 31.429688 2.570312 Z M 31.429688 2.570312 "/>
<path style=" stroke:none;fill-rule:nonzero;fill:rgb(0%,0%,0%);fill-opacity:1;" d="M 0 10 L 32 10 L 32 16.855469 L 0 16.855469 Z M 0 10 "/>
</g>
</svg>
