<?xml version="1.0" encoding="UTF-8"?>
<svg xmlns="http://www.w3.org/2000/svg" xmlns:xlink="http://www.w3.org/1999/xlink" width="32pt" height="32pt" viewBox="0 0 32 32" version="1.1">
<g id="surface1">
<path style=" stroke:none;fill-rule:nonzero;fill:rgb(0%,0%,0%);fill-opacity:1;" d="M 14.6875 5 L 1 5 C 0.449219 5 0 5.449219 0 6 L 0 16.6875 C 0 16.859375 0.140625 17 0.3125 17 L 14.6875 17 C 14.859375 17 15 16.859375 15 16.6875 L 15 5.3125 C 15 5.140625 14.859375 5 14.6875 5 Z M 9 7 C 9.550781 7 10 7.449219 10 8 C 10 8.550781 9.550781 9 9 9 C 8.449219 9 8 8.550781 8 8 C 8 7.449219 8.449219 7 9 7 Z M 6 7 C 6.550781 7 7 7.449219 7 8 C 7 8.550781 6.550781 9 6 9 C 5.449219 9 5 8.550781 5 8 C 5 7.449219 5.449219 7 6 7 Z M 3 7 C 3.550781 7 4 7.449219 4 8 C 4 8.550781 3.550781 9 3 9 C 2.449219 9 2 8.550781 2 8 C 2 7.449219 2.449219 7 3 7 Z M 3 15 C 2.449219 15 2 14.550781 2 14 C 2 13.449219 2.449219 13 3 13 C 3.550781 13 4 13.449219 4 14 C 4 14.550781 3.550781 15 3 15 Z M 3.5 11 C 3.5 10.449219 3.949219 10 4.5 10 C 5.050781 10 5.5 10.449219 5.5 11 C 5.5 11.550781 5.050781 12 4.5 12 C 3.949219 12 3.5 11.550781 3.5 11 Z M 6 15 C 5.449219 15 5 14.550781 5 14 C 5 13.449219 5.449219 13 6 13 C 6.550781 13 7 13.449219 7 14 C 7 14.550781 6.550781 15 6 15 Z M 6.5 11 C 6.5 10.449219 6.949219 10 7.5 10 C 8.050781 10 8.5 10.449219 8.5 11 C 8.5 11.550781 8.050781 12 7.5 12 C 6.949219 12 6.5 11.550781 6.5 11 Z M 9 15 C 8.449219 15 8 14.550781 8 14 C 8 13.449219 8.449219 13 9 13 C 9.550781 13 10 13.449219 10 14 C 10 14.550781 9.550781 15 9 15 Z M 9.5 11 C 9.5 10.449219 9.949219 10 10.5 10 C 11.050781 10 11.5 10.449219 11.5 11 C 11.5 11.550781 11.050781 12 10.5 12 C 9.949219 12 9.5 11.550781 9.5 11 Z M 12 15 C 11.449219 15 11 14.550781 11 14 C 11 13.449219 11.449219 13 12 13 C 12.550781 13 13 13.449219 13 14 C 13 14.550781 12.550781 15 12 15 Z M 12 9 C 11.449219 9 11 8.550781 11 8 C 11 7.449219 11.449219 7 12 7 C 12.550781 7 13 7.449219 13 8 C 13 8.550781 12.550781 9 12 9 Z M 12 9 "/>
<path style=" stroke:none;fill-rule:nonzero;fill:rgb(0%,0%,0%);fill-opacity:1;" d="M 31 5 L 17.3125 5 C 17.140625 5 17 5.140625 17 5.3125 L 17 7.6875 C 17 7.859375 17.140625 8 17.3125 8 L 31.6875 8 C 31.859375 8 32 7.859375 32 7.6875 L 32 6 C 32 5.449219 31.550781 5 31 5 Z M 31 5 "/>
<path style=" stroke:none;fill-rule:nonzero;fill:rgb(0%,0%,0%);fill-opacity:1;" d="M 17 11 L 17 12.1875 C 17 12.359375 17.140625 12.5 17.3125 12.5 L 31.6875 12.5 C 31.859375 12.5 32 12.359375 32 12.1875 L 32 10.3125 C 32 10.140625 31.859375 10 31.6875 10 L 17.3125 10 C 17.140625 10 17 10.140625 17 10.3125 Z M 17 11 "/>
<path style=" stroke:none;fill-rule:nonzero;fill:rgb(0%,0%,0%);fill-opacity:1;" d="M 17 16.6875 C 17 16.859375 17.140625 17 17.3125 17 L 31.6875 17 C 31.859375 17 32 16.859375 32 16.6875 L 32 14.8125 C 32 14.640625 31.859375 14.5 31.6875 14.5 L 17.3125 14.5 C 17.140625 14.5 17 14.640625 17 14.8125 Z M 17 16.6875 "/>
<path style=" stroke:none;fill-rule:nonzero;fill:rgb(0%,0%,0%);fill-opacity:1;" d="M 0 19.3125 L 0 21.6875 C 0 21.859375 0.140625 22 0.3125 22 L 31.6875 22 C 31.859375 22 32 21.859375 32 21.6875 L 32 19.3125 C 32 19.140625 31.859375 19 31.6875 19 L 0.3125 19 C 0.140625 19 0 19.140625 0 19.3125 Z M 0 19.3125 "/>
<path style=" stroke:none;fill-rule:nonzero;fill:rgb(0%,0%,0%);fill-opacity:1;" d="M 0 24.3125 L 0 26 C 0 26.550781 0.449219 27 1 27 L 31 27 C 31.550781 27 32 26.550781 32 26 L 32 24.3125 C 32 24.140625 31.859375 24 31.6875 24 L 0.3125 24 C 0.140625 24 0 24.140625 0 24.3125 Z M 0 24.3125 "/>
</g>
</svg>
