<?xml version="1.0" encoding="UTF-8"?>
<svg xmlns="http://www.w3.org/2000/svg" xmlns:xlink="http://www.w3.org/1999/xlink" width="24pt" height="24pt" viewBox="0 0 24 24" version="1.1">
<g id="surface1">
<path style=" stroke:none;fill-rule:nonzero;fill:rgb(11.764706%,12.54902%,11.372549%);fill-opacity:1;" d="M 0.855469 12.855469 C 0.382812 12.855469 0.0078125 12.464844 0.0078125 11.992188 C 0.0078125 11.519531 0.382812 11.144531 0.855469 11.144531 L 11.140625 11.144531 L 11.140625 0.859375 C 11.140625 0.386719 11.527344 0 12 0 C 12.472656 0 12.847656 0.386719 12.847656 0.859375 L 12.847656 11.144531 L 23.132812 11.144531 C 23.605469 11.144531 23.992188 11.519531 23.992188 11.992188 C 23.992188 12.464844 23.605469 12.855469 23.132812 12.855469 L 12.847656 12.855469 L 12.847656 23.140625 C 12.847656 23.613281 12.472656 24 12 24 C 11.527344 24 11.140625 23.613281 11.140625 23.140625 L 11.140625 12.855469 Z M 0.855469 12.855469 "/>
</g>
</svg>
