<?xml version="1.0" encoding="UTF-8"?>
<svg xmlns="http://www.w3.org/2000/svg" xmlns:xlink="http://www.w3.org/1999/xlink" width="24pt" height="24pt" viewBox="0 0 24 24" version="1.1">
<g id="surface1">
<path style=" stroke:none;fill-rule:nonzero;fill:rgb(0%,0%,0%);fill-opacity:1;" d="M 12 19.875 C 7.605469 19.875 4.03125 16.300781 4.03125 11.90625 C 4.03125 7.511719 7.605469 3.9375 12 3.9375 C 16.394531 3.9375 19.96875 7.511719 19.96875 11.90625 C 19.96875 16.300781 16.394531 19.875 12 19.875 Z M 12 5.8125 C 8.640625 5.8125 5.90625 8.546875 5.90625 11.90625 C 5.90625 15.265625 8.640625 18 12 18 C 15.359375 18 18.09375 15.265625 18.09375 11.90625 C 18.09375 8.546875 15.359375 5.8125 12 5.8125 Z M 10.875 1.171875 C 10.875 1.820312 11.398438 2.34375 12.046875 2.34375 C 12.695312 2.34375 13.21875 1.820312 13.21875 1.171875 C 13.21875 0.523438 12.695312 0 12.046875 0 C 11.398438 0 10.875 0.523438 10.875 1.171875 Z M 10.875 22.828125 C 10.875 23.476562 11.398438 24 12.046875 24 C 12.695312 24 13.21875 23.476562 13.21875 22.828125 C 13.21875 22.179688 12.695312 21.65625 12.046875 21.65625 C 11.398438 21.65625 10.875 22.179688 10.875 22.828125 Z M 1.171875 13.171875 C 1.820312 13.171875 2.34375 12.648438 2.34375 12 C 2.34375 11.351562 1.820312 10.828125 1.171875 10.828125 C 0.523438 10.828125 0 11.351562 0 12 C 0 12.648438 0.523438 13.171875 1.171875 13.171875 Z M 22.828125 13.171875 C 23.476562 13.171875 24 12.648438 24 12 C 24 11.351562 23.476562 10.828125 22.828125 10.828125 C 22.179688 10.828125 21.65625 11.351562 21.65625 12 C 21.65625 12.648438 22.179688 13.171875 22.828125 13.171875 Z M 5.625 2.53125 C 5.625 3.179688 6.148438 3.703125 6.796875 3.703125 C 7.445312 3.703125 7.96875 3.179688 7.96875 2.53125 C 7.96875 1.882812 7.445312 1.359375 6.796875 1.359375 C 6.148438 1.359375 5.625 1.882812 5.625 2.53125 Z M 1.453125 6.5625 C 1.453125 7.210938 1.976562 7.734375 2.625 7.734375 C 3.273438 7.734375 3.796875 7.210938 3.796875 6.5625 C 3.796875 5.914062 3.273438 5.390625 2.625 5.390625 C 1.976562 5.390625 1.453125 5.914062 1.453125 6.5625 Z M 1.453125 17.4375 C 1.453125 18.085938 1.976562 18.609375 2.625 18.609375 C 3.273438 18.609375 3.796875 18.085938 3.796875 17.4375 C 3.796875 16.789062 3.273438 16.265625 2.625 16.265625 C 1.976562 16.265625 1.453125 16.789062 1.453125 17.4375 Z M 5.625 21.515625 C 5.625 22.164062 6.148438 22.6875 6.796875 22.6875 C 7.445312 22.6875 7.96875 22.164062 7.96875 21.515625 C 7.96875 20.867188 7.445312 20.34375 6.796875 20.34375 C 6.148438 20.34375 5.625 20.867188 5.625 21.515625 Z M 20.203125 17.4375 C 20.203125 18.085938 20.726562 18.609375 21.375 18.609375 C 22.023438 18.609375 22.546875 18.085938 22.546875 17.4375 C 22.546875 16.789062 22.023438 16.265625 21.375 16.265625 C 20.726562 16.265625 20.203125 16.789062 20.203125 17.4375 Z M 16.078125 21.46875 C 16.078125 22.117188 16.601562 22.640625 17.25 22.640625 C 17.898438 22.640625 18.421875 22.117188 18.421875 21.46875 C 18.421875 20.820312 17.898438 20.296875 17.25 20.296875 C 16.601562 20.296875 16.078125 20.820312 16.078125 21.46875 Z M 17.25 1.359375 C 17.898438 1.359375 18.421875 1.882812 18.421875 2.53125 C 18.421875 3.179688 17.898438 3.703125 17.25 3.703125 C 16.601562 3.703125 16.078125 3.179688 16.078125 2.53125 C 16.078125 1.882812 16.601562 1.359375 17.25 1.359375 Z M 20.203125 6.5625 C 20.203125 7.210938 20.726562 7.734375 21.375 7.734375 C 22.023438 7.734375 22.546875 7.210938 22.546875 6.5625 C 22.546875 5.914062 22.023438 5.390625 21.375 5.390625 C 20.726562 5.390625 20.203125 5.914062 20.203125 6.5625 Z M 20.203125 6.5625 "/>
</g>
</svg>
