<?xml version="1.0" encoding="UTF-8"?>
<svg xmlns="http://www.w3.org/2000/svg" xmlns:xlink="http://www.w3.org/1999/xlink" width="24pt" height="24pt" viewBox="0 0 24 24" version="1.1">
<g id="surface1">
<path style=" stroke:none;fill-rule:nonzero;fill:rgb(26.666667%,26.666667%,26.666667%);fill-opacity:1;" d="M 23.886719 17.53125 C 23.859375 17.46875 23.832031 17.417969 23.808594 17.375 C 23.390625 16.625 22.59375 15.703125 21.417969 14.613281 L 21.394531 14.585938 L 21.382812 14.574219 L 21.367188 14.5625 L 21.355469 14.5625 C 20.824219 14.054688 20.484375 13.710938 20.34375 13.535156 C 20.085938 13.203125 20.027344 12.863281 20.167969 12.523438 C 20.269531 12.265625 20.644531 11.71875 21.292969 10.886719 C 21.636719 10.445312 21.90625 10.089844 22.105469 9.824219 C 23.546875 7.90625 24.171875 6.679688 23.980469 6.144531 L 23.90625 6.023438 C 23.855469 5.945312 23.726562 5.878906 23.519531 5.816406 C 23.3125 5.753906 23.042969 5.742188 22.71875 5.785156 L 19.117188 5.808594 C 19.058594 5.789062 18.976562 5.789062 18.867188 5.816406 C 18.761719 5.839844 18.707031 5.851562 18.707031 5.851562 L 18.644531 5.882812 L 18.59375 5.921875 C 18.550781 5.945312 18.503906 5.992188 18.457031 6.054688 C 18.40625 6.117188 18.363281 6.1875 18.332031 6.273438 C 17.9375 7.28125 17.492188 8.21875 16.992188 9.085938 C 16.683594 9.601562 16.402344 10.050781 16.140625 10.429688 C 15.882812 10.808594 15.667969 11.089844 15.492188 11.265625 C 15.316406 11.445312 15.160156 11.589844 15.015625 11.699219 C 14.875 11.808594 14.765625 11.851562 14.691406 11.835938 C 14.617188 11.820312 14.546875 11.800781 14.480469 11.785156 C 14.363281 11.710938 14.269531 11.609375 14.199219 11.480469 C 14.128906 11.351562 14.078125 11.1875 14.054688 10.992188 C 14.03125 10.796875 14.015625 10.628906 14.011719 10.484375 C 14.007812 10.34375 14.007812 10.144531 14.015625 9.886719 C 14.027344 9.625 14.03125 9.453125 14.03125 9.359375 C 14.03125 9.042969 14.035156 8.699219 14.046875 8.328125 C 14.0625 7.957031 14.070312 7.664062 14.078125 7.445312 C 14.089844 7.230469 14.09375 7 14.09375 6.757812 C 14.09375 6.515625 14.078125 6.328125 14.046875 6.191406 C 14.019531 6.054688 13.976562 5.917969 13.917969 5.789062 C 13.859375 5.660156 13.773438 5.5625 13.660156 5.488281 C 13.546875 5.417969 13.410156 5.363281 13.242188 5.320312 C 12.800781 5.222656 12.238281 5.167969 11.554688 5.160156 C 10.003906 5.140625 9.007812 5.242188 8.566406 5.457031 C 8.390625 5.550781 8.230469 5.675781 8.089844 5.832031 C 7.941406 6.015625 7.917969 6.117188 8.027344 6.132812 C 8.527344 6.207031 8.882812 6.386719 9.089844 6.671875 L 9.164062 6.820312 C 9.222656 6.929688 9.28125 7.121094 9.339844 7.398438 C 9.398438 7.671875 9.4375 7.976562 9.453125 8.308594 C 9.496094 8.917969 9.496094 9.4375 9.453125 9.871094 C 9.410156 10.304688 9.371094 10.644531 9.335938 10.886719 C 9.296875 11.128906 9.242188 11.324219 9.164062 11.472656 C 9.089844 11.621094 9.039062 11.714844 9.015625 11.746094 C 8.992188 11.78125 8.96875 11.800781 8.953125 11.808594 C 8.84375 11.851562 8.730469 11.875 8.617188 11.875 C 8.5 11.875 8.355469 11.816406 8.191406 11.699219 C 8.023438 11.582031 7.851562 11.421875 7.671875 11.214844 C 7.492188 11.011719 7.289062 10.726562 7.066406 10.359375 C 6.839844 9.992188 6.605469 9.558594 6.363281 9.058594 L 6.164062 8.695312 C 6.039062 8.464844 5.867188 8.125 5.652344 7.679688 C 5.433594 7.230469 5.242188 6.800781 5.078125 6.382812 C 5.011719 6.207031 4.910156 6.074219 4.777344 5.984375 L 4.714844 5.945312 C 4.671875 5.914062 4.605469 5.878906 4.515625 5.839844 C 4.421875 5.800781 4.328125 5.773438 4.226562 5.757812 L 0.800781 5.785156 C 0.449219 5.785156 0.210938 5.863281 0.0859375 6.019531 L 0.0390625 6.097656 C 0.0117188 6.136719 0 6.203125 0 6.296875 C 0 6.386719 0.0234375 6.5 0.0742188 6.632812 C 0.574219 7.808594 1.117188 8.941406 1.707031 10.035156 C 2.292969 11.125 2.804688 12.007812 3.238281 12.671875 C 3.671875 13.339844 4.113281 13.96875 4.5625 14.5625 C 5.015625 15.152344 5.3125 15.53125 5.457031 15.699219 C 5.605469 15.867188 5.71875 15.992188 5.800781 16.074219 L 6.113281 16.375 C 6.316406 16.574219 6.609375 16.8125 6.996094 17.09375 C 7.382812 17.371094 7.8125 17.648438 8.285156 17.917969 C 8.753906 18.1875 9.304688 18.410156 9.929688 18.582031 C 10.554688 18.753906 11.160156 18.820312 11.753906 18.789062 L 13.191406 18.789062 C 13.484375 18.761719 13.703125 18.671875 13.855469 18.511719 L 13.902344 18.449219 C 13.9375 18.398438 13.96875 18.324219 13.996094 18.21875 C 14.027344 18.113281 14.042969 18 14.042969 17.875 C 14.035156 17.515625 14.058594 17.195312 14.121094 16.90625 C 14.183594 16.617188 14.257812 16.402344 14.335938 16.253906 C 14.414062 16.109375 14.503906 15.988281 14.605469 15.886719 C 14.703125 15.785156 14.777344 15.726562 14.816406 15.707031 C 14.859375 15.683594 14.890625 15.671875 14.917969 15.660156 C 15.117188 15.59375 15.351562 15.660156 15.625 15.855469 C 15.894531 16.050781 16.148438 16.292969 16.386719 16.582031 C 16.625 16.867188 16.910156 17.191406 17.242188 17.550781 C 17.578125 17.910156 17.867188 18.175781 18.117188 18.351562 L 18.367188 18.5 C 18.535156 18.601562 18.75 18.691406 19.019531 18.777344 C 19.285156 18.859375 19.519531 18.878906 19.71875 18.839844 L 22.917969 18.789062 C 23.234375 18.789062 23.484375 18.734375 23.65625 18.632812 C 23.832031 18.527344 23.9375 18.414062 23.96875 18.289062 C 24.003906 18.164062 24.003906 18.019531 23.976562 17.863281 C 23.945312 17.703125 23.917969 17.59375 23.886719 17.53125 Z M 23.886719 17.53125 "/>
</g>
</svg>
