<?xml version="1.0" encoding="UTF-8"?>
<svg xmlns="http://www.w3.org/2000/svg" xmlns:xlink="http://www.w3.org/1999/xlink" width="40pt" height="40pt" viewBox="0 0 200 245" version="1.1">
<g id="surface1">
<path style=" stroke:none;fill-rule:nonzero;fill:rgb(70.196078%,70.196078%,70.196078%);fill-opacity:1;" d="M 166.988281 130.164062 C 166.710938 99.183594 192.363281 84.308594 193.523438 83.585938 C 179.089844 62.523438 156.621094 59.640625 148.609375 59.300781 C 129.5 57.371094 111.304688 70.515625 101.617188 70.515625 C 91.933594 70.515625 76.953125 59.578125 61.109375 59.886719 C 40.253906 60.195312 21.050781 71.96875 10.316406 90.574219 C -11.332031 128.019531 4.789062 183.515625 25.863281 213.910156 C 36.183594 228.765625 48.46875 245.507812 64.621094 244.890625 C 80.1875 244.273438 86.066406 234.859375 104.851562 234.859375 C 123.636719 234.859375 128.925781 244.890625 145.375 244.597656 C 162.101562 244.273438 172.714844 229.414062 182.957031 214.511719 C 194.777344 197.261719 199.667969 180.566406 199.945312 179.6875 C 199.574219 179.535156 167.328125 167.207031 166.988281 130.164062 "/>
<path style=" stroke:none;fill-rule:nonzero;fill:rgb(70.196078%,70.196078%,70.196078%);fill-opacity:1;" d="M 136.089844 39.195312 C 144.660156 28.839844 150.449219 14.445312 148.855469 0.0976562 C 136.507812 0.59375 121.5625 8.304688 112.695312 18.660156 C 104.757812 27.808594 97.796875 42.464844 99.683594 56.519531 C 113.453125 57.585938 127.515625 49.53125 136.089844 39.195312 "/>
</g>
</svg>
