<?xml version="1.0" encoding="UTF-8"?>
<svg xmlns="http://www.w3.org/2000/svg" xmlns:xlink="http://www.w3.org/1999/xlink" width="23pt" height="23pt" viewBox="0 0 23 23" version="1.1">
<g id="surface1">
<path style=" stroke:none;fill-rule:nonzero;fill:rgb(70.196078%,70.196078%,70.196078%);fill-opacity:1;" d="M 17.789062 12.21875 C 17.761719 9.3125 20.171875 7.914062 20.28125 7.847656 C 18.925781 5.871094 16.816406 5.597656 16.0625 5.566406 C 14.269531 5.386719 12.5625 6.621094 11.652344 6.621094 C 10.742188 6.621094 9.335938 5.59375 7.847656 5.621094 C 5.890625 5.652344 4.089844 6.757812 3.082031 8.503906 C 1.046875 12.019531 2.5625 17.226562 4.539062 20.082031 C 5.507812 21.476562 6.664062 23.046875 8.179688 22.988281 C 9.640625 22.933594 10.191406 22.046875 11.957031 22.046875 C 13.71875 22.046875 14.214844 22.988281 15.757812 22.960938 C 17.328125 22.933594 18.328125 21.535156 19.289062 20.136719 C 20.398438 18.519531 20.855469 16.949219 20.882812 16.867188 C 20.847656 16.855469 17.820312 15.695312 17.789062 12.21875 "/>
<path style=" stroke:none;fill-rule:nonzero;fill:rgb(70.196078%,70.196078%,70.196078%);fill-opacity:1;" d="M 14.886719 3.679688 C 15.691406 2.707031 16.234375 1.355469 16.085938 0.0078125 C 14.925781 0.0546875 13.523438 0.78125 12.691406 1.75 C 11.945312 2.609375 11.292969 3.988281 11.46875 5.304688 C 12.761719 5.40625 14.082031 4.648438 14.886719 3.679688 "/>
</g>
</svg>
